<svg xmlns="http://www.w3.org/2000/svg" width="640" height="420" viewBox="0 0 640 420">
  <defs>
    <linearGradient id="g1" x1="0" y1="0" x2="1" y2="1">
      <stop offset="0" stop-color="#7c3aed" />
      <stop offset="1" stop-color="#22d3ee" />
    </linearGradient>
    <linearGradient id="g2" x1="0" y1="0" x2="1" y2="1">
      <stop offset="0" stop-color="#0f172a" />
      <stop offset="1" stop-color="#111827" />
    </linearGradient>
  </defs>
  <rect width="640" height="420" rx="26" fill="#0b0f1c" />
  <circle cx="120" cy="90" r="70" fill="url(#g1)" opacity="0.3" />
  <circle cx="520" cy="80" r="60" fill="url(#g1)" opacity="0.25" />
  <circle cx="520" cy="360" r="110" fill="url(#g1)" opacity="0.18" />

  <rect x="90" y="90" width="460" height="240" rx="18" fill="url(#g2)" stroke="url(#g1)" stroke-width="2" />
  <rect x="120" y="120" width="160" height="12" rx="6" fill="#cbd5e1" opacity="0.35" />
  <rect x="120" y="142" width="220" height="8" rx="4" fill="#cbd5e1" opacity="0.18" />

  <rect x="120" y="175" width="120" height="90" rx="12" fill="#0b1224" stroke="#1f2937" />
  <rect x="260" y="175" width="120" height="90" rx="12" fill="#0b1224" stroke="#1f2937" />
  <rect x="400" y="175" width="120" height="90" rx="12" fill="#0b1224" stroke="#1f2937" />

  <path d="M140 290 C190 260, 220 310, 270 285 C310 265, 350 310, 400 288 C440 268, 470 300, 510 290" fill="none" stroke="url(#g1)" stroke-width="4" />
  <circle cx="270" cy="285" r="5" fill="#22d3ee" />
  <circle cx="400" cy="288" r="5" fill="#7c3aed" />
  <circle cx="510" cy="290" r="5" fill="#22d3ee" />
</svg>
