<svg xmlns="http://www.w3.org/2000/svg" width="560" height="260" viewBox="0 0 560 260">
  <defs>
    <linearGradient id="bg" x1="0" y1="0" x2="1" y2="1">
      <stop offset="0" stop-color="#111827" />
      <stop offset="1" stop-color="#0b1224" />
    </linearGradient>
    <linearGradient id="accent" x1="0" y1="0" x2="1" y2="0">
      <stop offset="0" stop-color="#7c3aed" />
      <stop offset="1" stop-color="#22d3ee" />
    </linearGradient>
  </defs>
  <rect width="560" height="260" rx="14" fill="url(#bg)" />
  <rect x="20" y="20" width="180" height="16" rx="8" fill="#94a3b8" opacity="0.25" />
  <rect x="220" y="20" width="120" height="16" rx="8" fill="#94a3b8" opacity="0.18" />
  <rect x="360" y="20" width="160" height="16" rx="8" fill="#94a3b8" opacity="0.2" />

  <rect x="20" y="56" width="520" height="140" rx="12" fill="#0f172a" stroke="url(#accent)" stroke-opacity="0.4" />
  <rect x="36" y="74" width="220" height="10" rx="5" fill="#cbd5e1" opacity="0.45" />
  <rect x="36" y="94" width="160" height="8" rx="4" fill="#cbd5e1" opacity="0.25" />

  <rect x="36" y="128" width="140" height="52" rx="10" fill="#111827" stroke="#1f2937" />
  <rect x="190" y="128" width="140" height="52" rx="10" fill="#111827" stroke="#1f2937" />
  <rect x="344" y="128" width="180" height="52" rx="10" fill="#111827" stroke="#1f2937" />

  <path d="M60 210 C110 190, 140 220, 190 200 C230 185, 250 215, 290 202 C330 190, 360 210, 410 198" fill="none" stroke="url(#accent)" stroke-width="3" />
  <circle cx="190" cy="200" r="4" fill="#22d3ee" />
  <circle cx="290" cy="202" r="4" fill="#7c3aed" />
  <circle cx="410" cy="198" r="4" fill="#22d3ee" />
</svg>
